<svg width="215" height="64" viewBox="0 0 215 64" fill="none" xmlns="http://www.w3.org/2000/svg">
<path d="M184.594 57.1992H192.248V63.5749H184.594V57.1992Z" fill="#121723"/>
<path d="M160.994 63.5749H152.701L163.97 33.8215H172.476L183.745 63.5749H175.452L173.539 58.2618H162.907L160.994 63.5749ZM164.821 52.7361H171.625L168.223 42.7475L164.821 52.7361Z" fill="#121723"/>
<path d="M148.669 33.3965C149.378 33.3965 150.654 33.5382 152.496 33.8215V39.5597H150.795C150.37 39.5597 149.987 39.7014 149.647 39.9847C149.307 40.2397 149.052 40.5231 148.882 40.8348L144.842 48.4857L153.134 63.5749H145.054L138.463 51.461H134.635V63.5749H126.981V33.8215H134.635V45.5103H138.463L142.715 37.4344C143.339 36.2443 144.105 35.2809 145.012 34.5441C145.947 33.779 147.167 33.3965 148.669 33.3965Z" fill="#121723"/>
<path d="M114.219 53.7988C110.817 54.0821 107.599 54.2238 104.566 54.2238C101.561 54.2238 99.4061 53.5721 98.102 52.2686C96.7978 50.9651 96.1458 48.9249 96.1458 46.1479V33.8215H103.8V46.1479C103.8 46.7996 103.985 47.3239 104.353 47.7206C104.75 48.089 105.275 48.2731 105.927 48.2731C108.252 48.2731 111.016 48.1315 114.219 47.8481V33.8215H121.874V63.5749H114.219V53.7988Z" fill="#121723"/>
<path d="M87.1953 41.8974C87.1953 40.1972 86.3448 39.3471 84.6438 39.3471H77.4143C75.7133 39.3471 74.8627 40.1972 74.8627 41.8974V55.499C74.8627 57.1991 75.7133 58.0492 77.4143 58.0492H84.6438C86.3448 58.0492 87.1953 57.1991 87.1953 55.499V41.8974ZM94.8501 55.499C94.8501 58.4743 94.1696 60.642 92.8088 62.0022C91.4763 63.334 89.3216 63.9999 86.3448 63.9999H75.7133C72.7364 63.9999 70.5676 63.334 69.2067 62.0022C67.8743 60.642 67.208 58.4743 67.208 55.499V41.8974C67.208 38.9221 67.8743 36.7685 69.2067 35.4367C70.5676 34.0766 72.7364 33.3965 75.7133 33.3965H86.3448C89.3216 33.3965 91.4763 34.0766 92.8088 35.4367C94.1696 36.7685 94.8501 38.9221 94.8501 41.8974V55.499Z" fill="#121723"/>
<path d="M58.2725 63.5749H50.6178V39.7722H41.6873V33.8215H67.203V39.7722H58.2725V63.5749Z" fill="#121723"/>
<path d="M25.941 63.5749H18.2863V45.2978L8.07998 63.5749H0V33.8215H7.65472V52.0986L17.861 33.8215H25.941V63.5749Z" fill="#121723"/>
<path d="M183.531 18.0644V12.5388H215V18.0644H183.531Z" fill="#121723"/>
<path d="M150.35 10.6262H160.131C163.108 10.6262 165.263 11.3063 166.595 12.6664C167.956 13.9982 168.636 16.1518 168.636 19.1271V21.6774C168.636 24.6528 167.956 26.8205 166.595 28.1806C165.263 29.5125 163.108 30.1784 160.131 30.1784H142.695V0.425049H150.35V10.6262ZM179.693 30.1784H172.038V0.425049H179.693V30.1784ZM160.982 19.1271C160.982 17.4269 160.131 16.5769 158.43 16.5769H150.35V24.2277H158.43C160.131 24.2277 160.982 23.3776 160.982 21.6774V19.1271Z" fill="#121723"/>
<path d="M139.288 29.7533C132.966 30.3201 127.721 30.6034 123.554 30.6034C120.775 30.6034 118.734 29.9517 117.43 28.6482C116.126 27.3447 115.474 25.3045 115.474 22.5275V8.926C115.474 5.95067 116.14 3.79709 117.472 2.46528C118.833 1.10513 121.002 0.425049 123.979 0.425049H139.288V6.37572H125.68C123.979 6.37572 123.128 7.22581 123.128 8.926V22.5275C123.128 23.1793 123.313 23.7035 123.681 24.1002C124.078 24.4686 124.574 24.6528 125.17 24.6528C125.765 24.6528 126.417 24.6528 127.126 24.6528C127.835 24.6244 128.572 24.5961 129.337 24.5677C130.103 24.5394 130.868 24.5111 131.634 24.4827C132.427 24.4544 133.434 24.3977 134.653 24.3127C135.9 24.2277 137.446 24.1285 139.288 24.0152V29.7533Z" fill="#121723"/>
<path d="M112.917 29.7533C106.595 30.3201 101.35 30.6034 97.1823 30.6034C94.4039 30.6034 92.3626 29.9517 91.0585 28.6482C89.7544 27.3447 89.1023 25.3045 89.1023 22.5275V8.926C89.1023 5.95067 89.7685 3.79709 91.101 2.46528C92.4619 1.10513 94.6307 0.425049 97.6075 0.425049H112.917V6.37572H99.3086C97.6075 6.37572 96.757 7.22581 96.757 8.926V22.5275C96.757 23.1793 96.9413 23.7035 97.3099 24.1002C97.7068 24.4686 98.2029 24.6528 98.7983 24.6528C99.3936 24.6528 100.046 24.6528 100.754 24.6528C101.463 24.6244 102.2 24.5961 102.966 24.5677C103.731 24.5394 104.497 24.5111 105.262 24.4827C106.056 24.4544 107.063 24.3977 108.282 24.3127C109.529 24.2277 111.074 24.1285 112.917 24.0152V29.7533Z" fill="#121723"/>
<path d="M78.0257 8.50095C78.0257 6.80076 77.1751 5.95066 75.4741 5.95066H68.2446C66.5436 5.95066 65.693 6.80076 65.693 8.50095V22.1025C65.693 23.8027 66.5436 24.6528 68.2446 24.6528H75.4741C77.1751 24.6528 78.0257 23.8027 78.0257 22.1025V8.50095ZM85.6804 22.1025C85.6804 25.0778 85 27.2455 83.6391 28.6057C82.3066 29.9375 80.152 30.6034 77.1751 30.6034H66.5436C63.5667 30.6034 61.3979 29.9375 60.0371 28.6057C58.7046 27.2455 58.0383 25.0778 58.0383 22.1025V8.50095C58.0383 5.52562 58.7046 3.37204 60.0371 2.04023C61.3979 0.680076 63.5667 0 66.5436 0H77.1751C80.152 0 82.3066 0.680076 83.6391 2.04023C85 3.37204 85.6804 5.52562 85.6804 8.50095V22.1025Z" fill="#121723"/>
<path d="M28.6968 0.425049H46.5578C49.5346 0.425049 51.6893 1.10513 53.0218 2.46528C54.3826 3.79709 55.063 5.95067 55.063 8.926V13.1765C55.063 16.1518 54.3826 18.3195 53.0218 19.6797C51.6893 21.0115 49.5346 21.6774 46.5578 21.6774H36.3515V30.1784H28.6968V0.425049ZM47.4083 8.926C47.4083 7.22581 46.5578 6.37572 44.8567 6.37572H36.3515V15.7268H44.8567C46.5578 15.7268 47.4083 14.8767 47.4083 13.1765V8.926Z" fill="#121723"/>
<path d="M21.6884 0C22.3971 0 23.6729 0.141682 25.5157 0.425047V6.16319H23.8147C23.3894 6.16319 23.0067 6.30487 22.6665 6.58824C22.3263 6.84327 22.0711 7.12663 21.901 7.43833L17.861 15.0892L26.1536 30.1784H18.0736L11.4821 18.0645H7.65472V30.1784H0V0.425047H7.65472V12.1139H11.4821L15.7347 4.03795C16.3584 2.84782 17.1239 1.88438 18.0311 1.14763C18.9667 0.382543 20.1858 0 21.6884 0Z" fill="#121723"/>
</svg>
