<svg width="300" height="22" viewBox="0 0 300 22" fill="none" xmlns="http://www.w3.org/2000/svg">
<path d="M294.414 17.1111H300V21.6944H294.414V17.1111Z" fill="white"/>
<path d="M277.19 21.6945H271.138L279.362 0.305603H285.569L293.794 21.6945H287.742L286.345 17.875H278.586L277.19 21.6945ZM279.983 13.9028H284.949L282.466 6.72227L279.983 13.9028Z" fill="white"/>
<path d="M268.195 0C268.713 0 269.644 0.101852 270.989 0.305555V4.43056H269.747C269.437 4.43056 269.157 4.53241 268.909 4.73611C268.661 4.91945 268.475 5.12315 268.351 5.34722L265.402 10.8472L271.454 21.6944H265.557L260.747 12.9861H257.953V21.6944H252.367V0.305555H257.953V8.70833H260.747L263.85 2.90278C264.305 2.04722 264.864 1.35463 265.526 0.825C266.209 0.275 267.099 0 268.195 0Z" fill="white"/>
<path d="M243.054 14.6667C240.571 14.8704 238.222 14.9723 236.008 14.9723C233.815 14.9723 232.243 14.5038 231.291 13.5667C230.339 12.6297 229.863 11.163 229.863 9.16671V0.305603H235.45V9.16671C235.45 9.63523 235.584 10.0121 235.853 10.2973C236.143 10.5621 236.526 10.6945 237.002 10.6945C238.698 10.6945 240.716 10.5926 243.054 10.3889V0.305603H248.64V21.6945H243.054V14.6667Z" fill="white"/>
<path d="M223.332 6.11111C223.332 4.88889 222.711 4.27778 221.469 4.27778H216.193C214.952 4.27778 214.331 4.88889 214.331 6.11111V15.8889C214.331 17.1111 214.952 17.7222 216.193 17.7222H221.469C222.711 17.7222 223.332 17.1111 223.332 15.8889V6.11111ZM228.918 15.8889C228.918 18.0278 228.421 19.5861 227.428 20.5639C226.456 21.5213 224.883 22 222.711 22H214.952C212.779 22 211.197 21.5213 210.203 20.5639C209.231 19.5861 208.745 18.0278 208.745 15.8889V6.11111C208.745 3.97222 209.231 2.42407 210.203 1.46667C211.197 0.488889 212.779 0 214.952 0H222.711C224.883 0 226.456 0.488889 227.428 1.46667C228.421 2.42407 228.918 3.97222 228.918 6.11111V15.8889Z" fill="white"/>
<path d="M202.224 21.6945H196.637V4.58338H190.12V0.305603H208.741V4.58338H202.224V21.6945Z" fill="white"/>
<path d="M178.628 21.6945H173.041V8.5556L165.593 21.6945H159.696V0.305603H165.282V13.4445L172.731 0.305603H178.628V21.6945Z" fill="white"/>
<path d="M133.942 12.9861V9.01392H156.908V12.9861H133.942Z" fill="white"/>
<path d="M109.727 7.63894H116.865C119.037 7.63894 120.61 8.12783 121.582 9.1056C122.575 10.063 123.072 11.6112 123.072 13.75V15.5834C123.072 17.7223 122.575 19.2806 121.582 20.2584C120.61 21.2158 119.037 21.6945 116.865 21.6945H104.14V0.305603H109.727V7.63894ZM131.141 21.6945H125.555V0.305603H131.141V21.6945ZM117.486 13.75C117.486 12.5278 116.865 11.9167 115.623 11.9167H109.727V17.4167H115.623C116.865 17.4167 117.486 16.8056 117.486 15.5834V13.75Z" fill="white"/>
<path d="M101.654 21.3889C97.0396 21.7963 93.2118 22 90.1703 22C88.1426 22 86.6529 21.5315 85.7011 20.5945C84.7493 19.6575 84.2734 18.1908 84.2734 16.1945V6.41672C84.2734 4.27783 84.7597 2.72968 85.7321 1.77227C86.7253 0.794492 88.3081 0.305603 90.4806 0.305603H101.654V4.58338H91.7221C90.4806 4.58338 89.8599 5.19449 89.8599 6.41672V16.1945C89.8599 16.663 89.9944 17.0399 90.2634 17.325C90.553 17.5899 90.9151 17.7223 91.3496 17.7223C91.7841 17.7223 92.26 17.7223 92.7773 17.7223C93.2946 17.7019 93.8325 17.6815 94.3912 17.6612C94.9498 17.6408 95.5085 17.6204 96.0671 17.6C96.6464 17.5797 97.381 17.5389 98.2706 17.4778C99.181 17.4167 100.309 17.3454 101.654 17.2639V21.3889Z" fill="white"/>
<path d="M82.4075 21.3889C77.7935 21.7963 73.9657 22 70.9242 22C68.8965 22 67.4068 21.5315 66.455 20.5945C65.5032 19.6575 65.0273 18.1908 65.0273 16.1945V6.41672C65.0273 4.27783 65.5136 2.72968 66.486 1.77227C67.4792 0.794492 69.062 0.305603 71.2345 0.305603H82.4075V4.58338H72.476C71.2345 4.58338 70.6138 5.19449 70.6138 6.41672V16.1945C70.6138 16.663 70.7483 17.0399 71.0173 17.325C71.307 17.5899 71.669 17.7223 72.1035 17.7223C72.538 17.7223 73.0139 17.7223 73.5312 17.7223C74.0485 17.7019 74.5864 17.6815 75.1451 17.6612C75.7037 17.6408 76.2624 17.6204 76.821 17.6C77.4003 17.5797 78.1349 17.5389 79.0246 17.4778C79.9349 17.4167 81.0626 17.3454 82.4075 17.2639V21.3889Z" fill="white"/>
<path d="M56.9436 6.11111C56.9436 4.88889 56.3229 4.27778 55.0814 4.27778H49.8053C48.5639 4.27778 47.9432 4.88889 47.9432 6.11111V15.8889C47.9432 17.1111 48.5639 17.7222 49.8053 17.7222H55.0814C56.3229 17.7222 56.9436 17.1111 56.9436 15.8889V6.11111ZM62.5301 15.8889C62.5301 18.0278 62.0335 19.5861 61.0403 20.5639C60.0679 21.5213 58.4954 22 56.3229 22H48.5639C46.3914 22 44.8085 21.5213 43.8154 20.5639C42.8429 19.5861 42.3567 18.0278 42.3567 15.8889V6.11111C42.3567 3.97222 42.8429 2.42407 43.8154 1.46667C44.8085 0.488889 46.3914 0 48.5639 0H56.3229C58.4954 0 60.0679 0.488889 61.0403 1.46667C62.0335 2.42407 62.5301 3.97222 62.5301 6.11111V15.8889Z" fill="white"/>
<path d="M20.9434 0.305603H33.9785C36.151 0.305603 37.7235 0.794492 38.6959 1.77227C39.6891 2.72968 40.1856 4.27783 40.1856 6.41672V9.47227C40.1856 11.6112 39.6891 13.1695 38.6959 14.1473C37.7235 15.1047 36.151 15.5834 33.9785 15.5834H26.5298V21.6945H20.9434V0.305603ZM34.5992 6.41672C34.5992 5.19449 33.9785 4.58338 32.737 4.58338H26.5298V11.3056H32.737C33.9785 11.3056 34.5992 10.6945 34.5992 9.47227V6.41672Z" fill="white"/>
<path d="M15.8283 0C16.3456 0 17.2767 0.101852 18.6216 0.305555V4.43056H17.3801C17.0698 4.43056 16.7904 4.53241 16.5422 4.73611C16.2939 4.91945 16.1077 5.12315 15.9835 5.34722L13.0351 10.8472L19.0871 21.6944H13.1903L8.37971 12.9861H5.58647V21.6944H0V0.305555H5.58647V8.70833H8.37971L11.4833 2.90278C11.9385 2.04722 12.4971 1.35463 13.1592 0.825C13.842 0.275 14.7317 0 15.8283 0Z" fill="white"/>
</svg>
